<?xml version="1.0" encoding="UTF-8"?><svg xmlns="http://www.w3.org/2000/svg" viewBox="0 0 513.96 112.45"><defs><style>.c,.d,.e{fill:#fff;}.d{font-family:OpenSans-ExtraBold, Open Sans;font-size:110px;}.e{opacity:.7;}</style></defs><g id="a"/><g id="b"><g><path class="e" d="M110.6,70.85c-.28-.68-23.55-46.79-23.93-47.42-1.22-2.94-3.37-5.51-6.33-7.25-7.23-4.24-16.52-1.81-20.76,5.42-2.91,4.96-2.68,10.89,.09,15.49,.28,.68,22.55,44.81,22.94,45.45,.28,.68,.62,1.34,1,1.98,1.22,2.94,3.37,5.51,6.33,7.25,7.23,4.24,16.52,1.81,20.76-5.42,2.91-4.96,2.68-10.89-.09-15.49Z"/><path class="c" d="M83.73,39.64c2.55-2.71,4.11-6.36,4.11-10.38,0-8.38-6.79-15.17-15.17-15.17-5.15,0-9.7,2.57-12.45,6.5-.5,.53-38.28,47.1-38.7,47.7-2.55,2.71-4.11,6.36-4.11,10.38,0,8.38,6.79,15.17,15.17,15.17,5.15,0,9.7-2.57,12.45-6.5,.5-.53,38.28-47.1,38.7-47.7Z"/><path class="c" d="M148.75,39.64c2.55-2.71,4.11-6.36,4.11-10.38,0-8.38-6.79-15.17-15.17-15.17-5.15,0-9.7,2.57-12.45,6.5-.5,.53-38.28,47.1-38.7,47.7-2.55,2.71-4.11,6.36-4.11,10.38,0,8.38,6.79,15.17,15.17,15.17,5.15,0,9.7-2.57,12.45-6.5,.5-.53,38.28-47.1,38.7-47.7Z"/></g><text class="d" transform="translate(175.37 93.84)"><tspan x="0" y="0">LOGO</tspan></text></g></svg>